<?xml version="1.0" standalone="no"?>
<!DOCTYPE svg PUBLIC "-//W3C//DTD SVG 20010904//EN"
 "http://www.w3.org/TR/2001/REC-SVG-20010904/DTD/svg10.dtd">
<svg version="1.0" xmlns="http://www.w3.org/2000/svg"
 width="3500.000000pt" height="3500.000000pt" viewBox="0 0 3500.000000 3500.000000"
 preserveAspectRatio="xMidYMid meet">

<g transform="translate(0.000000,3500.000000) scale(0.100000,-0.100000)"
fill="#000000" stroke="none">
<path d="M18155 33249 c-513 -21 -1085 -74 -1610 -150 -3659 -526 -7026 -2340
-9501 -5119 -1794 -2015 -3040 -4448 -3618 -7065 -609 -2761 -466 -5661 411
-8330 701 -2132 1818 -4041 3354 -5730 303 -333 804 -826 1174 -1155 1867
-1660 4148 -2869 6560 -3478 1037 -262 1963 -401 3110 -467 602 -34 1331 -23
2030 31 1789 138 3551 588 5212 1331 265 118 840 404 1093 543 537 295 1252
740 1659 1033 411 295 947 727 1341 1082 832 749 1456 1487 1890 2235 100 173
276 535 349 717 348 870 425 1726 235 2613 -112 524 -379 1165 -668 1605 -235
358 -578 680 -981 922 -228 137 -633 317 -789 350 -91 19 -211 12 -288 -17
-169 -64 -324 -262 -336 -431 -4 -60 -1 -75 22 -123 37 -75 101 -128 270 -224
370 -211 589 -373 836 -621 167 -167 247 -265 365 -441 299 -450 453 -928 484
-1512 44 -810 -178 -1599 -656 -2333 -217 -331 -463 -627 -817 -980 -330 -330
-596 -551 -921 -766 -137 -91 -312 -199 -322 -199 -3 0 -3 109 -1 243 6 286
-6 905 -22 1132 -164 2388 -1010 4378 -2600 6115 -174 190 -527 539 -700 691
-831 730 -1733 1255 -3400 1979 -358 156 -574 258 -841 400 -270 143 -723 395
-785 436 -104 69 -196 191 -244 323 -57 155 -61 205 -85 1026 -6 223 -32 952
-40 1145 -2 69 -7 229 -10 355 -3 127 -8 334 -11 461 -8 331 4 418 116 842 84
320 280 1634 280 1878 0 39 -7 95 -16 125 -12 42 -139 354 -149 367 -5 7 -342
-111 -402 -142 -107 -53 -206 -136 -583 -486 -416 -387 -512 -460 -645 -495
-164 -42 -271 68 -335 345 -105 458 -173 687 -266 897 -45 103 -63 127 -65 85
0 -9 -60 -244 -132 -522 l-133 -505 -144 -7 c-80 -4 -250 -12 -377 -18 -231
-11 -437 -30 -543 -50 -154 -29 -500 -175 -665 -280 -299 -190 -320 -199 -498
-211 -146 -10 -224 -26 -336 -69 -154 -60 -302 -179 -396 -319 -99 -151 -139
-285 -139 -476 1 -262 87 -554 280 -945 132 -268 248 -430 598 -833 212 -244
253 -300 313 -424 90 -189 125 -419 104 -695 -6 -88 -20 -226 -31 -307 -53
-400 -93 -874 -117 -1366 -12 -242 -8 -1125 5 -1340 47 -728 129 -1325 268
-1940 68 -302 75 -345 81 -540 6 -200 -4 -321 -44 -510 -137 -655 -582 -1246
-1151 -1530 -59 -30 -253 -111 -432 -181 -867 -339 -1599 -658 -1800 -784
-239 -150 -465 -365 -604 -577 -23 -35 -43 -63 -46 -63 -3 0 -60 73 -126 163
-1623 2174 -2590 4695 -2838 7397 -44 470 -50 642 -51 1305 0 644 5 800 41
1225 179 2156 816 4197 1892 6065 719 1248 1651 2419 2710 3402 2096 1947
4697 3229 7497 3697 116 20 265 43 332 52 68 10 121 19 120 21 -13 12 -716 82
-1042 103 -464 30 -1219 38 -1680 19z m-1014 -22929 c148 -28 244 -129 330
-348 95 -242 241 -710 299 -957 109 -462 144 -752 144 -1180 0 -588 -66 -1021
-197 -1280 -115 -229 -305 -394 -567 -492 -163 -61 -266 -145 -354 -286 -48
-76 -106 -221 -106 -264 0 -12 -4 -25 -10 -28 -11 -7 -548 260 -785 390 -1068
586 -1984 1240 -2877 2052 -201 183 -590 564 -721 706 l-90 98 39 57 c55 79
195 218 284 281 166 117 331 180 620 236 802 157 1458 328 2975 777 878 259
890 262 1016 238z m2547 -676 c470 -175 801 -522 898 -943 26 -113 32 -241 18
-399 -17 -197 -17 -526 1 -694 40 -384 119 -704 325 -1333 130 -397 224 -704
217 -711 -3 -3 -67 -16 -143 -29 -77 -14 -175 -37 -219 -51 -85 -28 -796 -311
-1102 -438 -124 -52 -203 -79 -250 -85 -63 -9 -474 -47 -973 -90 l-215 -19
-230 81 c-126 44 -232 82 -235 85 -3 3 0 7 7 9 29 10 275 180 360 249 204 164
322 293 466 511 244 366 412 769 546 1308 74 299 141 676 301 1706 17 110 100
826 100 865 0 21 21 18 128 -22z m3677 -5338 c133 -20 316 -58 500 -105 178
-45 178 -45 -120 -61 -110 -6 -226 -12 -257 -15 -122 -10 -834 -16 -1018 -8
l-195 8 46 26 c135 76 328 139 508 165 117 16 389 11 536 -10z"/>
</g>
</svg>
